<svg width="40" height="40" viewBox="0 0 40 40" fill="none" xmlns="http://www.w3.org/2000/svg">
<g clip-path="url(#clip0_311_2552)">
<path d="M32.25 16.7333C31.6902 13.8962 30.1627 11.3414 27.9284 9.50541C25.6942 7.66939 22.8918 6.66601 20 6.66667C15.1833 6.66667 11 9.4 8.91667 13.4C6.46706 13.6647 4.20168 14.8253 2.55581 16.6589C0.909952 18.4924 -0.00028617 20.8695 6.74879e-08 23.3333C6.74879e-08 28.85 4.48333 33.3333 10 33.3333H31.6667C36.2667 33.3333 40 29.6 40 25C40 20.6 36.5833 17.0333 32.25 16.7333ZM31.6667 30H10C6.31667 30 3.33333 27.0167 3.33333 23.3333C3.33333 19.9167 5.88333 17.0667 9.26667 16.7167L11.05 16.5333L11.8833 14.95C12.6498 13.458 13.8131 12.2064 15.2452 11.333C16.6773 10.4596 18.3226 9.99836 20 10C24.3667 10 28.1333 13.1 28.9833 17.3833L29.4833 19.8833L32.0333 20.0667C33.2862 20.1509 34.4607 20.7067 35.3204 21.622C36.18 22.5373 36.6611 23.7443 36.6667 25C36.6667 27.75 34.4167 30 31.6667 30ZM13.3333 21.6667H17.5833V26.6667H22.4167V21.6667H26.6667L20 15L13.3333 21.6667Z" fill="#14A6E3"/>
<rect x="31" y="2" width="8" height="8" fill="#CC29DA"/>
</g>
<defs>
<clipPath id="clip0_311_2552">
<rect width="40" height="40" fill="white"/>
</clipPath>
</defs>
</svg>
