<svg width="40" height="40" viewBox="0 0 40 40" fill="none" xmlns="http://www.w3.org/2000/svg">
<g clip-path="url(#clip0_311_2527)">
<path d="M10.625 39.9983C9.04167 39.9983 7.375 38.75 7.375 36.3317V30.665C7.375 28.4167 8.79167 25.8333 10.7917 24.7517L18.7083 20.085L10.7917 15.4183C8.875 14.1667 7.375 11.6667 7.375 9.41667V3.66667C7.375 1.25 9.04167 0 10.7117 0C11.3783 0 12.1267 0.166667 12.7933 0.583333L30.6267 11.1667C31.8767 11.9167 32.5433 13.0817 32.5433 14.2483C32.5433 15.4983 31.79 16.665 30.6267 17.3317L26.3767 19.8317L30.6267 22.3333C31.8767 23.0833 32.6267 24.25 32.6267 25.4167C32.6267 26.6667 31.8733 27.8333 30.6267 28.5L12.79 39.4167C12.04 39.8333 11.3733 40 10.6233 40L10.625 39.9983ZM22.5417 22.3333L12.7917 28.0833C12.0417 28.5 11.2917 29.8333 11.2917 30.6667V35.75L28.2083 25.75L22.5417 22.3333ZM11.2917 4.33333V9.41667C11.2917 10.25 12.0417 11.5833 12.7917 12L22.5417 17.75L28.2917 14.3333L11.2917 4.33333Z" fill="#14A6E3"/>
<rect x="31" y="2" width="8" height="8" fill="#CC29DA"/>
</g>
<defs>
<clipPath id="clip0_311_2527">
<rect width="40" height="40" fill="white"/>
</clipPath>
</defs>
</svg>
