<svg width="40" height="40" viewBox="0 0 40 40" fill="none" xmlns="http://www.w3.org/2000/svg">
<path d="M28.3333 33.3333V6.66668C29.2499 6.66668 30.0349 6.99334 30.6883 7.64668C31.3405 8.2989 31.6666 9.08334 31.6666 10V30C31.6666 30.9167 31.3405 31.7017 30.6883 32.355C30.0349 33.0072 29.2499 33.3333 28.3333 33.3333ZM6.66659 36.6667C5.74992 36.6667 4.96547 36.3406 4.31325 35.6883C3.65992 35.035 3.33325 34.25 3.33325 33.3333V6.66668C3.33325 5.75001 3.65992 4.96501 4.31325 4.31168C4.96547 3.65945 5.74992 3.33334 6.66659 3.33334H21.6666C22.5833 3.33334 23.3683 3.65945 24.0216 4.31168C24.6738 4.96501 24.9999 5.75001 24.9999 6.66668V33.3333C24.9999 34.25 24.6738 35.035 24.0216 35.6883C23.3683 36.3406 22.5833 36.6667 21.6666 36.6667H6.66659ZM34.9999 30V10C35.6944 10 36.2844 10.2433 36.7699 10.73C37.2566 11.2156 37.4999 11.8056 37.4999 12.5V27.5C37.4999 28.1945 37.2566 28.7845 36.7699 29.27C36.2844 29.7567 35.6944 30 34.9999 30ZM6.66659 33.3333H21.6666V6.66668H6.66659V33.3333Z" fill="#14A6E3"/>
<rect x="10" y="17" width="8" height="8" fill="#CC29DA"/>
</svg>
