<svg width="676" height="832" viewBox="0 0 676 832" fill="none" xmlns="http://www.w3.org/2000/svg">
<g opacity="0.1">
<path opacity="0.7" d="M157.726 78.1699L160.958 75.7878C173.077 67.6889 183.176 76.2642 183.176 95.797V970.008C183.176 989.065 173.077 1011.46 160.958 1019.55L157.726 1021.94C145.608 1030.51 135.509 1021.46 135.509 1002.4V128.193C135.509 108.66 145.608 86.7452 157.726 78.1699Z" fill="url(#paint0_linear_311_1424)"/>
<path opacity="0.7" d="M68.4539 364.969L71.6856 362.587C84.2081 354.488 93.903 363.063 93.903 382.596V804.695C93.903 823.751 84.2081 846.142 71.6856 854.241L68.4539 856.623C56.3353 865.199 46.6404 856.147 46.6404 837.091V414.992C46.6404 395.459 56.3353 373.068 68.4539 364.969Z" fill="url(#paint1_linear_311_1424)"/>
<path opacity="0.7" d="M-20.4158 526.948L-17.1841 524.566C-5.06551 515.991 5.03334 525.042 5.03334 544.099V1091.49C5.03334 1110.55 -5.06551 1132.94 -17.1841 1141.04L-20.4158 1143.42C-32.9384 1151.52 -42.6333 1142.95 -42.6333 1123.89V576.494C-42.6333 557.438 -32.9384 535.047 -20.4158 526.948Z" fill="url(#paint2_linear_311_1424)"/>
<path opacity="0.7" d="M650.55 78.1699L653.781 75.7878C665.9 67.6889 675.999 76.2642 675.999 95.797V970.008C675.999 989.065 665.9 1011.46 653.781 1019.55L650.55 1021.94C638.431 1030.51 628.332 1021.46 628.332 1002.4V128.193C628.332 108.66 638.431 86.7452 650.55 78.1699Z" fill="url(#paint3_linear_311_1424)"/>
<path opacity="0.7" d="M561.277 364.969L564.509 362.587C577.031 354.488 586.726 363.063 586.726 382.596V804.695C586.726 823.751 577.031 846.142 564.509 854.241L561.277 856.623C549.158 865.199 539.464 856.147 539.464 837.091V414.992C539.464 395.459 549.158 373.068 561.277 364.969Z" fill="url(#paint4_linear_311_1424)"/>
<path opacity="0.7" d="M472.407 526.948L475.639 524.566C487.758 515.991 497.857 525.042 497.857 544.099V1091.49C497.857 1110.55 487.758 1132.94 475.639 1141.04L472.407 1143.42C459.885 1151.52 450.19 1142.95 450.19 1123.89V576.494C450.19 557.438 459.885 535.047 472.407 526.948Z" fill="url(#paint5_linear_311_1424)"/>
<path opacity="0.7" d="M383.132 5.75579L386.364 3.37374C398.483 -5.20163 408.581 3.85014 408.581 22.9065V1152C408.581 1171.05 398.483 1193.44 386.364 1202.02L383.132 1203.93C371.014 1212.5 360.915 1203.45 360.915 1184.39V55.3023C360.915 36.246 371.014 13.8547 383.132 5.75579Z" fill="url(#paint6_linear_311_1424)"/>
<path opacity="0.7" d="M293.86 246.343L297.092 243.961C309.21 235.385 319.309 244.437 319.309 263.493V1212.5C319.309 1232.03 309.21 1254.43 297.092 1262.52L293.86 1264.91C281.741 1273.01 271.643 1264.43 271.643 1244.9V295.889C271.643 276.833 281.741 254.442 293.86 246.343Z" fill="url(#paint7_linear_311_1424)"/>
<path opacity="0.7" d="M204.586 381.643L207.818 379.738C220.34 371.162 230.035 380.214 230.035 399.27V755.148C230.035 774.205 220.34 796.596 207.818 804.695L204.586 807.077C192.467 815.176 182.772 806.6 182.772 787.544V431.666C182.772 412.61 192.467 390.219 204.586 381.643Z" fill="url(#paint8_linear_311_1424)"/>
</g>
<defs>
<linearGradient id="paint0_linear_311_1424" x1="5407.1" y1="-3481.56" x2="5869.82" y2="-2801.91" gradientUnits="userSpaceOnUse">
<stop stop-color="#5761D7"/>
<stop offset="0.5" stop-color="#42E8E0"/>
<stop offset="1" stop-color="#5761D7"/>
</linearGradient>
<linearGradient id="paint1_linear_311_1424" x1="1542.89" y1="-642.637" x2="1795.67" y2="-272.098" gradientUnits="userSpaceOnUse">
<stop stop-color="#5761D7"/>
<stop offset="0.5" stop-color="#42E8E0"/>
<stop offset="1" stop-color="#5761D7"/>
</linearGradient>
<linearGradient id="paint2_linear_311_1424" x1="2265.16" y1="-1028.53" x2="2575.87" y2="-571.926" gradientUnits="userSpaceOnUse">
<stop stop-color="#5761D7"/>
<stop offset="0.5" stop-color="#42E8E0"/>
<stop offset="1" stop-color="#5761D7"/>
</linearGradient>
<linearGradient id="paint3_linear_311_1424" x1="5899.93" y1="-3481.56" x2="6362.64" y2="-2801.91" gradientUnits="userSpaceOnUse">
<stop stop-color="#5761D7"/>
<stop offset="0.5" stop-color="#42E8E0"/>
<stop offset="1" stop-color="#5761D7"/>
</linearGradient>
<linearGradient id="paint4_linear_311_1424" x1="2035.71" y1="-642.637" x2="2288.5" y2="-272.098" gradientUnits="userSpaceOnUse">
<stop stop-color="#5761D7"/>
<stop offset="0.5" stop-color="#42E8E0"/>
<stop offset="1" stop-color="#5761D7"/>
</linearGradient>
<linearGradient id="paint5_linear_311_1424" x1="2757.98" y1="-1028.53" x2="3068.69" y2="-571.926" gradientUnits="userSpaceOnUse">
<stop stop-color="#5761D7"/>
<stop offset="0.5" stop-color="#42E8E0"/>
<stop offset="1" stop-color="#5761D7"/>
</linearGradient>
<linearGradient id="paint6_linear_311_1424" x1="8781.35" y1="-5688.29" x2="9362.77" y2="-4834.65" gradientUnits="userSpaceOnUse">
<stop stop-color="#5761D7"/>
<stop offset="0.5" stop-color="#42E8E0"/>
<stop offset="1" stop-color="#5761D7"/>
</linearGradient>
<linearGradient id="paint7_linear_311_1424" x1="6392.35" y1="-3889.37" x2="6890.36" y2="-3158.1" gradientUnits="userSpaceOnUse">
<stop stop-color="#5761D7"/>
<stop offset="0.5" stop-color="#42E8E0"/>
<stop offset="1" stop-color="#5761D7"/>
</linearGradient>
<linearGradient id="paint8_linear_311_1424" x1="1318.69" y1="-383.47" x2="1540.36" y2="-57.4799" gradientUnits="userSpaceOnUse">
<stop stop-color="#5761D7"/>
<stop offset="0.5" stop-color="#42E8E0"/>
<stop offset="1" stop-color="#5761D7"/>
</linearGradient>
</defs>
</svg>
