<svg width="40" height="40" viewBox="0 0 40 40" fill="none" xmlns="http://www.w3.org/2000/svg">
<g clip-path="url(#clip0_311_2560)">
<path d="M35 16.6667C29.5824 16.9809 24.3721 18.8589 20 22.0733C15.6278 18.8589 10.4175 16.9809 4.99996 16.6667V21.6C4.11443 21.6018 3.26584 21.9551 2.64077 22.5824C2.01569 23.2096 1.6653 24.0595 1.66663 24.945V26.6183C1.66663 28.4667 4.99996 30.2983 4.99996 30.2983V33.6433C9.42664 33.928 13.6957 35.3958 17.3616 37.8933C18.2873 38.5357 19.1687 39.2395 20 40C20.8312 39.2395 21.7127 38.5357 22.6383 37.8933C26.3042 35.3958 30.5733 33.928 35 33.6433V29.9633C35.8855 29.9616 36.7341 29.6082 37.3592 28.9809C37.9842 28.3537 38.3346 27.5039 38.3333 26.6183V24.945C38.3346 24.0595 37.9842 23.2096 37.3592 22.5824C36.7341 21.9551 35.8855 21.6018 35 21.6V16.6667ZM20 35.7033C16.5433 33.1701 12.5524 31.462 8.3333 30.71V20.46C11.5668 21.1114 14.6367 22.4047 17.3616 24.2633C18.2873 24.9057 19.1687 25.6095 20 26.37C20.8312 25.6095 21.7127 24.9057 22.6383 24.2633C25.363 22.4041 28.433 21.1102 31.6666 20.4583V30.71C27.4475 31.462 23.4567 33.1701 20 35.7033ZM18.3333 13.3333H21.6666V15H18.3333V13.3333ZM18.3333 6.66667H21.6666V8.33333H18.3333V6.66667Z" fill="#14A6E3"/>
<path d="M18.3334 16.6667H21.6667V18.3333H18.3334V16.6667Z" fill="#14A6E3"/>
<path d="M24.9997 8.33333C25.9201 8.33333 26.6663 7.58714 26.6663 6.66667C26.6663 5.74619 25.9201 5 24.9997 5C24.0792 5 23.333 5.74619 23.333 6.66667C23.333 7.58714 24.0792 8.33333 24.9997 8.33333Z" fill="#CC29DA"/>
<path d="M14.6667 8.33333C15.5871 8.33333 16.3333 7.58714 16.3333 6.66667C16.3333 5.74619 15.5871 5 14.6667 5C13.7462 5 13 5.74619 13 6.66667C13 7.58714 13.7462 8.33333 14.6667 8.33333Z" fill="#CC29DA"/>
<path d="M26.6667 13.3333H13.3334C12.0077 13.332 10.7367 12.8048 9.7993 11.8674C8.86191 10.93 8.3347 9.65901 8.33337 8.33333V5C8.3347 3.67432 8.86191 2.40332 9.7993 1.46593C10.7367 0.528533 12.0077 0.00132369 13.3334 0L26.6667 0C27.9924 0.00132369 29.2634 0.528533 30.2008 1.46593C31.1382 2.40332 31.6654 3.67432 31.6667 5V8.33333C31.6654 9.65901 31.1382 10.93 30.2008 11.8674C29.2634 12.8048 27.9924 13.332 26.6667 13.3333ZM13.3334 3.33333C12.8915 3.33377 12.4678 3.50951 12.1554 3.82198C11.8429 4.13444 11.6671 4.55811 11.6667 5V8.33333C11.6671 8.77523 11.8429 9.19889 12.1554 9.51136C12.4678 9.82382 12.8915 9.99956 13.3334 10H26.6667C27.1086 9.99956 27.5323 9.82382 27.8447 9.51136C28.1572 9.19889 28.3329 8.77523 28.3334 8.33333V5C28.3329 4.55811 28.1572 4.13444 27.8447 3.82198C27.5323 3.50951 27.1086 3.33377 26.6667 3.33333H13.3334Z" fill="#14A6E3"/>
</g>
<defs>
<clipPath id="clip0_311_2560">
<rect width="40" height="40" fill="white"/>
</clipPath>
</defs>
</svg>
