<svg width="40" height="40" viewBox="0 0 40 40" fill="none" xmlns="http://www.w3.org/2000/svg">
<path d="M27.5 1.875H12.5C11.3397 1.875 10.2269 2.33594 9.40641 3.15641C8.58594 3.97688 8.125 5.08968 8.125 6.25V33.75C8.125 34.9103 8.58594 36.0231 9.40641 36.8436C10.2269 37.6641 11.3397 38.125 12.5 38.125H27.5C28.6603 38.125 29.7731 37.6641 30.5936 36.8436C31.4141 36.0231 31.875 34.9103 31.875 33.75V6.25C31.875 5.08968 31.4141 3.97688 30.5936 3.15641C29.7731 2.33594 28.6603 1.875 27.5 1.875ZM11.875 11.875H28.125V28.125H11.875V11.875ZM12.5 5.625H27.5C27.6658 5.625 27.8247 5.69085 27.9419 5.80806C28.0592 5.92527 28.125 6.08424 28.125 6.25V8.125H11.875V6.25C11.875 6.08424 11.9408 5.92527 12.0581 5.80806C12.1753 5.69085 12.3342 5.625 12.5 5.625ZM27.5 34.375H12.5C12.3342 34.375 12.1753 34.3092 12.0581 34.1919C11.9408 34.0747 11.875 33.9158 11.875 33.75V31.875H28.125V33.75C28.125 33.9158 28.0592 34.0747 27.9419 34.1919C27.8247 34.3092 27.6658 34.375 27.5 34.375Z" fill="#14A6E3"/>
<rect x="26" y="18" width="8" height="8" fill="#CC29DA"/>
</svg>
